<?xml version="1.0" standalone="no"?>
<!DOCTYPE svg PUBLIC "-//W3C//DTD SVG 20010904//EN"
 "http://www.w3.org/TR/2001/REC-SVG-20010904/DTD/svg10.dtd">
<svg version="1.0" xmlns="http://www.w3.org/2000/svg"
 width="1024.000000pt" height="302.000000pt" viewBox="0 0 1024.000000 302.000000"
 preserveAspectRatio="xMidYMid meet">

<g transform="translate(0.000000,302.000000) scale(0.100000,-0.100000)"
fill="#000000" stroke="none">
<path d="M3974 3009 c-505 -13 -1568 -57 -1800 -75 l-81 -6 -22 -39 -23 -40
-50 37 -50 37 -586 -42 c-323 -23 -704 -53 -847 -66 -143 -14 -317 -30 -387
-36 l-128 -12 0 -26 c0 -36 48 -513 52 -515 2 -2 25 -11 51 -20 l49 -18 -47
-48 -46 -47 31 -329 c16 -181 46 -504 66 -719 32 -357 37 -391 56 -406 11 -9
110 -71 220 -139 l200 -123 191 17 c106 9 211 19 235 22 l42 6 0 80 c0 69 2
79 16 74 9 -3 33 -9 55 -12 46 -8 43 -24 25 158 l-12 128 30 -28 c17 -15 75
-69 130 -121 l99 -93 56 6 c31 3 151 13 266 22 116 9 211 17 212 18 1 1 -6 77
-16 169 l-17 168 71 -71 71 -70 381 22 c371 22 382 22 402 4 17 -16 33 -18
116 -14 l96 4 97 -128 97 -127 130 6 130 6 93 -132 94 -131 586 0 587 0 119
-180 c65 -99 123 -177 128 -174 5 3 61 84 124 180 l115 174 589 0 588 0 92
131 93 131 130 -3 130 -4 87 125 88 125 92 -4 c82 -3 94 -1 114 18 l23 21 383
-25 383 -26 65 63 64 63 -5 -35 c-12 -72 -29 -261 -25 -265 2 -3 82 -14 178
-24 l174 -20 83 59 83 60 55 -31 55 -31 86 81 c48 45 88 80 91 78 2 -3 -6 -93
-18 -202 -12 -109 -17 -200 -13 -205 5 -4 138 -20 296 -36 l286 -27 59 37 c32
20 119 74 193 120 l135 83 12 99 c7 54 31 270 52 479 65 623 110 1046 136
1285 14 124 25 234 25 246 0 19 -9 22 -97 32 l-98 11 -65 -69 c-36 -39 -68
-70 -72 -70 -3 0 -27 35 -54 78 -26 42 -48 78 -49 79 -2 5 -283 33 -515 53
-1189 100 -2437 163 -3495 177 l-490 6 -57 -52 -57 -52 -69 51 -69 50 -394 -2
c-217 0 -525 -5 -685 -9z m379 -226 c13 -263 40 -1340 35 -1355 -5 -12 -38
-16 -185 -22 -98 -3 -234 -9 -303 -12 l-125 -6 -43 71 c-24 39 -46 71 -50 71
-4 0 -26 -33 -49 -74 l-42 -74 -206 -7 c-113 -4 -208 -6 -210 -3 -9 9 -58
1488 -50 1497 5 4 298 16 401 16 1 0 7 -175 13 -390 6 -214 14 -468 18 -564
l6 -173 198 4 c109 2 201 7 205 11 6 6 -7 537 -22 959 l-7 168 169 3 c93 1
185 4 205 5 l36 2 6 -127z m753 84 c33 -24 65 -47 72 -51 9 -5 33 9 72 43 l58
51 217 0 217 0 -7 -747 c-4 -412 -8 -749 -9 -750 -2 -2 -80 0 -174 4 l-171 6
-26 38 -25 39 0 520 0 520 -210 0 -210 0 0 -311 0 -312 -40 -63 -40 -64 39
-27 40 -28 1 -109 c0 -105 -1 -111 -31 -158 l-31 -48 -172 0 -172 0 -2 745 -3
745 275 0 274 0 58 -43z m1136 33 l69 0 -7 -284 -7 -284 84 -6 c46 -3 136 -8
200 -10 l116 -5 7 207 c3 114 9 243 12 287 l6 80 142 -2 c77 -2 169 -6 204 -9
l64 -6 -6 -156 c-4 -87 -9 -217 -12 -290 l-6 -133 -143 7 -143 7 -4 -99 c-2
-60 1 -102 7 -106 5 -4 55 -8 110 -8 55 0 117 -3 137 -6 l37 -6 -5 -62 c-2
-33 -9 -191 -14 -350 -6 -160 -12 -292 -15 -294 -2 -2 -95 -1 -205 3 l-201 7
5 77 c3 42 8 166 11 277 l6 201 -203 5 c-112 3 -204 5 -206 3 -1 -1 -8 -126
-14 -276 -6 -151 -11 -274 -12 -275 0 0 -22 1 -48 4 -35 3 -57 12 -88 39 l-41
36 -39 -38 -38 -37 -73 7 c-41 4 -75 8 -76 9 -1 1 45 1468 47 1495 0 2 61 1
137 -2 75 -4 167 -7 205 -7z m-3278 -102 c3 -35 13 -195 21 -357 12 -217 13
-296 5 -301 -6 -4 -70 -10 -142 -13 -72 -4 -132 -8 -134 -9 -1 -2 0 -49 3
-106 l6 -102 96 5 c53 3 112 8 131 10 19 2 41 1 48 -4 10 -6 18 -68 28 -237 7
-126 16 -253 19 -281 l6 -53 -68 -1 c-37 0 -126 -4 -198 -8 -71 -4 -131 -7
-132 -7 -1 1 -9 100 -18 221 -9 121 -19 222 -21 224 -2 2 -79 -2 -172 -8 -93
-6 -184 -11 -201 -11 l-31 0 0 -64 c0 -62 -1 -65 -37 -95 l-38 -31 25 -21 c14
-12 32 -26 41 -33 12 -8 17 -35 22 -107 l5 -97 -61 -6 c-130 -12 -347 -18
-347 -10 0 5 -5 70 -10 144 -5 74 -23 376 -40 670 -16 294 -32 567 -36 606
l-6 71 96 7 96 7 59 -45 c33 -25 62 -46 65 -46 4 0 20 23 37 50 21 34 38 50
52 51 12 0 189 11 392 23 204 13 384 24 402 25 l31 1 6 -62z m4871 32 c248
-16 505 -32 573 -36 l122 -7 -5 -61 c-3 -34 -10 -117 -15 -185 -5 -68 -11
-125 -13 -127 -2 -2 -68 1 -148 7 l-144 10 -62 41 -63 40 -41 -36 c-32 -29
-46 -36 -67 -32 -15 3 -86 8 -158 12 l-131 6 -6 -88 c-4 -49 -3 -92 1 -95 4
-3 153 -16 332 -28 179 -13 327 -24 329 -27 2 -2 -1 -79 -8 -171 -6 -93 -11
-175 -11 -184 0 -13 -9 -15 -47 -12 -240 18 -445 33 -529 39 l-101 6 -5 -93
c-3 -52 -4 -95 -4 -96 1 -1 184 -14 406 -28 222 -14 406 -27 407 -29 6 -6 -21
-346 -28 -358 -5 -8 -51 -9 -176 -1 -92 6 -364 24 -603 39 -239 15 -436 28
-438 30 -2 1 0 43 4 94 l7 91 58 46 c33 25 59 49 59 53 0 4 -24 22 -54 40
l-55 33 5 46 c4 44 48 729 60 931 9 162 8 160 57 160 23 0 245 -13 492 -30z
m1430 -93 l520 -53 43 -64 c24 -36 47 -72 52 -80 7 -12 23 -2 77 53 67 65 98
80 129 59 9 -5 3 -87 -21 -307 -18 -165 -37 -340 -42 -390 -4 -49 -12 -90 -18
-90 -5 0 -70 6 -144 14 -106 11 -135 11 -141 1 -9 -15 -24 -170 -16 -177 3 -3
67 -12 143 -20 75 -8 139 -15 140 -17 3 -3 -83 -867 -90 -906 -1 -8 -11 -14
-22 -13 -11 2 -112 12 -224 23 -113 11 -207 22 -209 25 -5 5 15 210 59 603 12
106 19 195 16 199 -6 5 -459 53 -464 49 -1 0 -14 -123 -29 -273 l-28 -272 -52
29 c-28 17 -57 30 -63 30 -6 0 -39 -21 -74 -46 l-62 -46 -100 7 c-55 4 -104
11 -109 15 -5 5 10 182 37 427 103 930 137 1239 137 1256 0 10 7 17 18 17 9
-1 251 -24 537 -53z m-7681 1 c6 -53 44 -642 41 -646 -1 -1 -73 -10 -160 -19
l-157 -17 6 -66 c18 -185 17 -180 40 -175 38 8 276 28 281 23 4 -3 45 -403 71
-685 l6 -71 -43 -6 c-52 -7 -403 -35 -405 -33 -1 1 -9 79 -18 172 -9 94 -18
184 -20 201 -4 28 0 33 40 52 24 12 44 26 44 31 0 4 -22 18 -50 29 l-50 21 0
48 c0 80 11 78 -244 50 -125 -13 -229 -26 -231 -28 -2 -3 7 -121 20 -264 13
-143 27 -302 31 -354 l7 -94 -24 6 c-13 4 -41 10 -61 13 l-38 7 0 -72 c0 -39
-3 -71 -7 -71 -5 -1 -78 -7 -163 -15 -85 -7 -156 -12 -158 -10 -2 2 -23 223
-48 492 -24 268 -52 572 -62 674 l-18 186 48 52 c26 29 48 56 48 60 0 4 -25
15 -55 25 -30 9 -55 23 -55 30 0 18 -28 301 -35 347 l-5 35 208 17 c279 23
259 25 266 -20 3 -21 20 -180 36 -353 17 -173 32 -316 34 -318 3 -3 459 48
463 52 1 1 -11 159 -27 351 -17 191 -29 349 -27 351 4 3 358 31 414 33 l52 1
5 -42z m3656 -1342 l94 -143 185 -12 c102 -7 187 -14 189 -15 1 -2 -35 -78
-80 -169 l-82 -167 82 -167 c45 -92 81 -168 79 -169 -1 -1 -86 -8 -188 -15
l-186 -12 -87 -133 c-48 -73 -94 -138 -101 -144 -12 -10 -32 15 -110 133 l-95
144 -113 7 c-61 4 -147 9 -189 13 l-77 6 85 168 84 169 -82 164 c-45 91 -80
167 -77 170 3 3 87 11 187 17 l182 12 95 144 c52 78 98 143 102 143 5 0 51
-65 103 -144z m-780 -256 l50 -100 -165 0 c-159 0 -167 1 -220 27 l-55 27 -67
-32 c-68 -31 -69 -31 -273 -37 -197 -6 -645 -22 -741 -27 l-47 -3 -70 92 -71
92 42 5 c62 8 355 24 662 36 404 16 402 16 662 18 l243 2 50 -100z m2120 56
c34 -20 65 -36 71 -36 5 0 37 14 71 31 69 35 11 34 468 9 96 -6 194 -13 217
-16 l43 -5 -71 -94 c-69 -91 -71 -93 -107 -89 -72 8 -524 24 -1007 35 -269 7
-491 13 -493 14 -2 2 19 47 45 100 l48 98 327 -6 327 -5 61 -36z m-2020 -255
c25 -54 21 -77 -19 -130 l-19 -25 -338 -7 c-187 -4 -450 -11 -585 -14 l-246
-8 -71 94 -71 94 77 6 c88 8 760 29 1143 37 l106 2 23 -49z m1970 28 c195 -6
389 -14 431 -17 l77 -7 -67 -93 -66 -94 -225 6 c-124 4 -362 9 -530 12 -168 2
-328 7 -356 10 -50 5 -52 7 -78 54 l-27 49 26 51 26 52 217 -6 c119 -4 377
-11 572 -17z m-2152 -321 l-43 -83 -265 -6 -265 -6 -58 61 c-92 97 -92 96 3
96 69 0 93 -5 167 -35 48 -19 93 -35 100 -35 8 0 37 18 66 40 57 43 40 40 280
48 l58 2 -43 -82z m1995 66 c114 -3 207 -9 207 -13 0 -3 -24 -33 -53 -65 l-53
-59 -89 38 -90 38 -90 -47 -90 -48 -90 4 -90 3 -43 82 -43 82 158 -4 c87 -3
251 -8 366 -11z"/>
<path d="M2342 2500 l-33 -60 -76 0 -75 0 6 -57 c3 -32 8 -111 12 -175 l6
-118 32 0 c17 0 109 5 205 12 l174 12 -7 95 c-3 53 -9 131 -13 175 l-6 78 -61
-7 -61 -6 -30 55 c-17 31 -32 56 -35 56 -3 0 -20 -27 -38 -60z"/>
<path d="M9113 2168 c-11 -112 -20 -204 -19 -205 4 -5 466 -47 466 -43 0 3 9
93 20 200 11 107 17 197 12 200 -7 7 -395 51 -437 50 -19 0 -22 -13 -42 -202z"/>
<path d="M4930 1150 c0 -25 -4 -30 -25 -30 l-25 0 0 -200 0 -200 25 0 c24 0
25 -3 25 -60 l0 -60 60 0 60 0 0 30 c0 17 5 30 10 30 6 0 10 -13 10 -30 l0
-30 65 0 65 0 0 30 c0 20 5 30 15 30 10 0 15 -10 15 -30 0 -30 1 -30 55 -30
l55 0 0 60 c0 57 1 60 25 60 l25 0 0 200 0 200 -25 0 c-21 0 -25 5 -25 30 l0
30 -205 0 -205 0 0 -30z m150 -270 l0 -70 -70 0 -70 0 0 70 0 70 70 0 70 0 0
-70z m250 0 l0 -70 -70 0 -70 0 0 70 0 70 70 0 70 0 0 -70z"/>
</g>
</svg>
